<?xml version="1.0" encoding="UTF-8" standalone="no"?>
<svg
   xmlns:dc="http://purl.org/dc/elements/1.1/"
   xmlns:cc="http://creativecommons.org/ns#"
   xmlns:rdf="http://www.w3.org/1999/02/22-rdf-syntax-ns#"
   xmlns:svg="http://www.w3.org/2000/svg"
   xmlns="http://www.w3.org/2000/svg"
   xmlns:sodipodi="http://sodipodi.sourceforge.net/DTD/sodipodi-0.dtd"
   xmlns:inkscape="http://www.inkscape.org/namespaces/inkscape"
   inkscape:version="1.0 (4035a4fb49, 2020-05-01)"
   height="509.8941"
   width="507.83939"
   sodipodi:docname="value1.svg"
   id="svg24"
   version="1.1"
   viewBox="0 0 507.83938 509.8941">
  <metadata
     id="metadata30">
    <rdf:RDF>
      <cc:Work
         rdf:about="">
        <dc:format>image/svg+xml</dc:format>
        <dc:type
           rdf:resource="http://purl.org/dc/dcmitype/StillImage" />
        <dc:title></dc:title>
      </cc:Work>
    </rdf:RDF>
  </metadata>
  <defs
     id="defs28" />
  <sodipodi:namedview
     inkscape:current-layer="svg24"
     inkscape:window-maximized="1"
     inkscape:window-y="-9"
     inkscape:window-x="-9"
     inkscape:cy="99.8601"
     inkscape:cx="270.56901"
     inkscape:zoom="0.73942094"
     fit-margin-bottom="0"
     fit-margin-right="0"
     fit-margin-left="0"
     fit-margin-top="0"
     showgrid="false"
     id="namedview26"
     inkscape:window-height="1001"
     inkscape:window-width="1920"
     inkscape:pageshadow="2"
     inkscape:pageopacity="0"
     guidetolerance="10"
     gridtolerance="10"
     objecttolerance="10"
     borderopacity="1"
     bordercolor="#666666"
     pagecolor="#ffffff" />
  <g
     transform="translate(-126.281,-461.3899)"
     id="g22"
     stroke-width="1.25">
    <path
       id="path2"
       d="m 281.62,845.64 c 4.3419,-8.4014 5.2926,-18.973 6.2196,-28.53 -0.16571,-12.728 -6.4854,-24.338 -10.846,-36.083 -8.3062,-21.352 -16.256,-42.71 -21.174,-65.108 -3.8528,-17.138 -4.8815,-34.796 -3.2283,-52.249 4.3344,-19.111 19.831,-32.786 35.27,-43.706 24.584,-16.626 48.936,-26.3 78.225,-27.115 35.175,-0.34607 71.16,2.4932 103.25,17.832 13.62,7.3578 20.105,20.671 21.643,35.574 -0.82581,19.173 -3.8397,39.054 -13.849,55.664 -9.5267,13.927 -20.612,26.774 -32.999,38.217 -8.8023,7.3242 -17.005,15.224 -25.168,23.239 -7.4854,9.3079 -15.315,18.503 -20.948,29.051 -4.0502,8.816 -3.6419,18.38 -3.6646,27.84 0.44373,9.0319 -0.071,17.857 -1.546,26.745 l -23.653,11.745 c 1.2592,-8.8362 2.376,-17.521 1.7103,-26.515 -0.0156,-9.6822 -0.58997,-19.607 3.2774,-28.711 5.0429,-11.164 13.278,-20.284 20.665,-30.02 8.0062,-8.2542 16.221,-16.239 25.092,-23.58 12.731,-11.064 23.829,-23.986 33.634,-37.704 10.277,-15.798 13.65,-35.322 14.277,-53.944 -1.7227,-14.054 -6.845,-26.453 -20.083,-33.381 -31.647,-15.938 -67.419,-18.473 -102.38,-16.898 -16.565,0.79663 -74.585,20.697 -33.456,2.5834 -15.387,10.24 -30.574,23.153 -35.836,41.49 -2.1488,17.18 -1.1141,34.735 2.3156,51.7 5.4699,22.087 12.044,43.812 21.228,64.699 4.5313,12.041 11.454,23.771 11.754,36.846 -0.90591,10.138 -2.6239,20.19 -5.0072,30.074 l -24.73,10.244 z" />
    <path
       id="path4"
       d="m 300.79,832.89 c 9.2844,3.4028 18.441,7.63 27.829,10.967 12.563,5.0112 25.924,4.8857 39.116,6.1122 7.4015,1.9735 13.719,0.58667 20.621,-1.4974 l -20.659,16.408 c -7.2032,1.5709 -14.084,1.9284 -21.398,0.2262 -13.354,-0.95227 -26.644,-1.6484 -39.36,-6.429 -9.1912,-3.429 -18.198,-8.4564 -27.823,-10.038 l 21.675,-15.748 z" />
    <path
       id="path6"
       d="m 289.52,849.06 c 2.7451,8.3029 11.135,12.473 18.679,16.24 12.707,3.2618 25.796,5.3574 38.923,6.033 11.51,0.32129 23.228,-0.76331 34.434,-3.39 2.2183,-0.17578 4.2548,-1.1292 6.4005,-1.6985 l -20.978,16.122 c -2.1679,0.50415 -4.2595,1.3578 -6.5098,1.5137 -11.34,2.1112 -22.9,3.4158 -34.464,2.6517 -13.372,-0.80115 -26.96,-2.7716 -39.738,-6.7354 -8.3193,-4.4993 -17.087,-9.3999 -20.618,-18.574 l 23.872,-12.163 z" />
    <path
       id="path8"
       d="m 292.7,879.36 c 7.784,3.6222 15.597,7.7073 23.718,10.857 23.56,4.5735 33.618,5.0375 57.679,5.0889 22.474,-10.554 -21.18,21.366 -9.8842,3.7424 l 23.806,-11.46 c -5.2487,13.99 -20.492,21.295 -35.064,23.261 -24.198,-1.3567 -34.12,-1.8744 -57.931,-6.1772 -8.0373,-2.9164 -15.984,-7.3906 -23.998,-9.564 l 21.675,-15.748 z" />
    <path
       id="path10"
       d="m 299.62,899.57 c 3.327,8.7078 11.481,13.549 18.901,18.675 9.7774,5.9067 20.834,5.7185 31.861,5.7312 9.6668,0.75012 18.599,-0.81177 27.532,-4.1766 -35.251,21.209 -16.888,14.046 -13.85,0.10046 l 23.436,-12.118 c -0.52878,17.48 -13.851,19.772 -30.297,28.402 -9.2488,2.6202 -18.424,4.0398 -28.132,3.2709 -11.437,-0.16492 -22.762,-0.5675 -32.67,-7.0503 -8.129,-5.6904 -16.502,-11.29 -20.653,-20.672 l 23.872,-12.163 z" />
    <path
       id="path12"
       d="m 348.11,935.94 c 0.11191,7.9094 -1.2498,15.687 -1.9622,23.542 l -23.533,11.802 c 0.63504,-7.7368 2.2124,-15.402 1.6239,-23.181 l 23.872,-12.163 z" />
    <path
       id="path14"
       d="m 145.89,563.42 c 13.764,9.7628 12.385,10.812 27.585,18.435 10.686,5.0255 20.506,11.579 31.11,16.791 6.1851,3.28 1.8132,5.2714 11.543,9.3213 l -14.099,14.164 c -5.5677,-3.9774 -11.085,-8.0697 -17.217,-11.161 -10.582,-5.2646 -20.577,-11.455 -31.125,-16.761 -14.66,-7.8263 -12.79,-10.038 -27.406,-17.096 l 19.608,-13.693 z" />
    <path
       id="path16"
       d="m 290.47,461.39 c 12.15,12.29 35.234,66.62 37.614,73.711 l -17.061,8.5895 c -2.2965,-6.8735 -23.837,-61.532 -37.315,-72.355 l 16.762,-9.9456 z" />
    <path
       id="path18"
       d="m 474.16,471.17 c -5.0361,20.346 -14.512,53.758 -22.288,73.293 l -17.598,-8.9177 c 8.6834,-18.68 18.449,-51.752 22.076,-71.971 l 17.811,7.5956 z" />
    <path
       id="path20"
       d="m 551.78,622.5 c 22.866,-13.489 53.42,-17.967 79.503,-25.331 l 2.8374,16.354 c -25.062,6.8988 -51.567,14.028 -75.394,22.926 L 551.7797,622.5 Z" />
  </g>
</svg>
